<svg id="Layer_1" data-name="Layer 1" xmlns="http://www.w3.org/2000/svg" width="50" height="32" viewBox="0 0 50 32">
  <defs>
    <style>
      .cls-1 {
        fill: #323232;
      }
    </style>
  </defs>
  <title>counter9</title>
  <g>
    <path class="cls-1" d="M11.28,11.62a7.34,7.34,0,0,1,.81,3.74,7.37,7.37,0,0,1-.8,3.78A2.53,2.53,0,0,1,9,20.47a2.53,2.53,0,0,1-2.29-1.33,7.37,7.37,0,0,1-.8-3.78,7.33,7.33,0,0,1,.81-3.74A2.59,2.59,0,0,1,11.28,11.62Zm-3.7.73a7.32,7.32,0,0,0-.51,3,10.45,10.45,0,0,0,.14,1.84l3.39-4.38A2.83,2.83,0,0,0,10,11.64a1.3,1.3,0,0,0-1-.41A1.58,1.58,0,0,0,7.58,12.35Zm2.85,6.07a7.28,7.28,0,0,0,.51-3.06,9.93,9.93,0,0,0-.11-1.6L7.43,18.08A1.73,1.73,0,0,0,9,19.49,1.58,1.58,0,0,0,10.42,18.42Z"/>
    <path class="cls-1" d="M18.58,10.8a3.4,3.4,0,0,1,1.07,1.5A6,6,0,0,1,20,14.48a8.92,8.92,0,0,1-.88,4.44,2.82,2.82,0,0,1-2.5,1.53,3.29,3.29,0,0,1-2.38-.91L15,18.76l0,0,0,0a2.11,2.11,0,0,0,.69.57,2,2,0,0,0,.88.17,1.84,1.84,0,0,0,1.68-1.06,6.28,6.28,0,0,0,.71-2.64,2.91,2.91,0,0,1-.87.54,3,3,0,0,1-1.08.18,2.89,2.89,0,0,1-1.48-.38,2.73,2.73,0,0,1-1-1.06,3.17,3.17,0,0,1-.38-1.56,3.55,3.55,0,0,1,.38-1.66,3,3,0,0,1,1-1.17A2.69,2.69,0,0,1,18.58,10.8ZM15,18.71l0,0Q14.87,18.63,15,18.71Zm0,0,0.06-.08,0.08,0.08Q15.14,18.82,15,18.71Zm3.13-3.36A2.15,2.15,0,0,0,19,14.71a6.08,6.08,0,0,0-.54-2.62A1.52,1.52,0,0,0,17,11.24a1.63,1.63,0,0,0-1.33.61,2.53,2.53,0,0,0-.5,1.65A2.08,2.08,0,0,0,15.7,15a1.71,1.71,0,0,0,1.3.56A2.91,2.91,0,0,0,18.13,15.35Z"/>
    <path class="cls-1" d="M24.47,22.71V9.86h1.07V22.71H24.47Z"/>
    <path class="cls-1" d="M32.68,20.29V11.7l-2,.59-0.26-.62L33,10.31H33.8v10H32.68Z"/>
    <path class="cls-1" d="M40.68,20.29V11.7l-2,.59-0.26-.62L41,10.31H41.8v10H40.68Z"/>
  </g>
</svg>
