<svg id="Layer_1" data-name="Layer 1" xmlns="http://www.w3.org/2000/svg" width="50" height="32" viewBox="0 0 50 32">
  <title>counter2-01</title>
  <g>
    <path d="M11.28,11.62a7.34,7.34,0,0,1,.81,3.74,7.37,7.37,0,0,1-.8,3.78A2.53,2.53,0,0,1,9,20.47a2.53,2.53,0,0,1-2.29-1.33,7.37,7.37,0,0,1-.8-3.78,7.33,7.33,0,0,1,.81-3.74A2.59,2.59,0,0,1,11.28,11.62Zm-3.7.73a7.32,7.32,0,0,0-.51,3,10.46,10.46,0,0,0,.14,1.84l3.39-4.38A2.83,2.83,0,0,0,10,11.64a1.31,1.31,0,0,0-1-.41A1.58,1.58,0,0,0,7.58,12.35Zm2.85,6.07a7.28,7.28,0,0,0,.51-3.06,9.93,9.93,0,0,0-.11-1.6L7.43,18.08A1.73,1.73,0,0,0,9,19.49,1.58,1.58,0,0,0,10.42,18.42Z"/>
    <path d="M14.17,19.4l1.3-1.31q1.3-1.29,1.94-2a7.59,7.59,0,0,0,1-1.46,3.2,3.2,0,0,0,.38-1.51,1.85,1.85,0,0,0-.46-1.41,1.74,1.74,0,0,0-1.23-.43,2.71,2.71,0,0,0-1.27.3,1.74,1.74,0,0,0-.78.67l-0.19.36a0.94,0.94,0,0,0-.1.22,0,0,0,0,0,0,0l0.06,0s0.05,0,.06,0l0,0.1-0.14-.08-0.82-.64a3.48,3.48,0,0,1,3.18-1.94,2.85,2.85,0,0,1,2.07.77A2.76,2.76,0,0,1,20,13.11a3.66,3.66,0,0,1-.42,1.68,7.47,7.47,0,0,1-1.06,1.55q-0.65.74-1.8,1.87l-1.09,1.1h3.71a1.59,1.59,0,0,0,.38,0,0.48,0.48,0,0,0,.22-0.13H20v1.14H14.17V19.4Z"/>
    <path d="M24.47,22.71V9.86h1.07V22.71H24.47Z"/>
    <path d="M32.68,20.29V11.7l-2,.59-0.26-.62L33,10.31H33.8v10H32.68Z"/>
    <path d="M40.68,20.29V11.7l-2,.59-0.26-.62L41,10.31H41.8v10H40.68Z"/>
  </g>
</svg>
