<svg id="Layer_1" data-name="Layer 1" xmlns="http://www.w3.org/2000/svg" width="50" height="32" viewBox="0 0 50 32">
  <defs>
    <style>
      .cls-1 {
        fill: #323232;
      }
    </style>
  </defs>
  <title>counter5</title>
  <g>
    <path class="cls-1" d="M11.28,11.62a7.34,7.34,0,0,1,.81,3.74,7.37,7.37,0,0,1-.8,3.78A2.53,2.53,0,0,1,9,20.47a2.53,2.53,0,0,1-2.29-1.33,7.37,7.37,0,0,1-.8-3.78,7.33,7.33,0,0,1,.81-3.74A2.59,2.59,0,0,1,11.28,11.62Zm-3.7.73a7.32,7.32,0,0,0-.51,3,10.45,10.45,0,0,0,.14,1.84l3.39-4.38A2.83,2.83,0,0,0,10,11.64a1.3,1.3,0,0,0-1-.41A1.58,1.58,0,0,0,7.58,12.35Zm2.85,6.07a7.28,7.28,0,0,0,.51-3.06,9.93,9.93,0,0,0-.11-1.6L7.43,18.08A1.73,1.73,0,0,0,9,19.49,1.58,1.58,0,0,0,10.42,18.42Z"/>
    <path class="cls-1" d="M18,13.81l0.68,0.41a2.83,2.83,0,0,1,1.07,1.17,3.8,3.8,0,0,1,.39,1.77,3.63,3.63,0,0,1-.41,1.76,2.84,2.84,0,0,1-1.12,1.15,3.23,3.23,0,0,1-1.61.4,3.63,3.63,0,0,1-1.69-.4A3.38,3.38,0,0,1,14,18.93l0.9-.67,0,0,0,0a3.06,3.06,0,0,0,.88.94,2.23,2.23,0,0,0,1.22.3,1.71,1.71,0,0,0,1-.3,2.06,2.06,0,0,0,.71-0.83A2.82,2.82,0,0,0,19,17.11a2.47,2.47,0,0,0-.58-1.73,1.9,1.9,0,0,0-1.46-.64,2.23,2.23,0,0,0-1,.25,2.63,2.63,0,0,0-.86.7l-0.7-.29,0.34-5.07h5.06v1H15.64L15.48,14.2a3.67,3.67,0,0,1,1.63-.38H18Zm-3,4.42,0,0C14.88,18.16,14.89,18.15,15,18.23Zm0,0L15,18.16l0.06,0.08C15.11,18.31,15.06,18.3,15,18.23Z"/>
    <path class="cls-1" d="M24.47,22.71V9.86h1.07V22.71H24.47Z"/>
    <path class="cls-1" d="M32.68,20.29V11.7l-2,.59-0.26-.62L33,10.31H33.8v10H32.68Z"/>
    <path class="cls-1" d="M40.68,20.29V11.7l-2,.59-0.26-.62L41,10.31H41.8v10H40.68Z"/>
  </g>
</svg>
