<svg id="Layer_1" data-name="Layer 1" xmlns="http://www.w3.org/2000/svg" width="50" height="32" viewBox="0 0 50 32">
  <defs>
    <style>
      .cls-1 {
        fill: #323232;
      }
    </style>
  </defs>
  <title>counter6</title>
  <g>
    <path class="cls-1" d="M11.28,11.62a7.34,7.34,0,0,1,.81,3.74,7.37,7.37,0,0,1-.8,3.78A2.53,2.53,0,0,1,9,20.47a2.53,2.53,0,0,1-2.29-1.33,7.37,7.37,0,0,1-.8-3.78,7.33,7.33,0,0,1,.81-3.74A2.59,2.59,0,0,1,11.28,11.62Zm-3.7.73a7.32,7.32,0,0,0-.51,3,10.45,10.45,0,0,0,.14,1.84l3.39-4.38A2.83,2.83,0,0,0,10,11.64a1.3,1.3,0,0,0-1-.41A1.58,1.58,0,0,0,7.58,12.35Zm2.85,6.07a7.28,7.28,0,0,0,.51-3.06,9.93,9.93,0,0,0-.11-1.6L7.43,18.08A1.73,1.73,0,0,0,9,19.49,1.58,1.58,0,0,0,10.42,18.42Z"/>
    <path class="cls-1" d="M18.66,14.27a2.85,2.85,0,0,1,1,1.15,4.14,4.14,0,0,1,0,3.43,2.92,2.92,0,0,1-1,1.18,2.69,2.69,0,0,1-3.73-.83,6.28,6.28,0,0,1-.82-3.45,9.24,9.24,0,0,1,.43-3,4.06,4.06,0,0,1,1.22-1.89,2.88,2.88,0,0,1,1.86-.64,3.06,3.06,0,0,1,2.19.91l-0.7.8,0,0a2.15,2.15,0,0,0-.65-0.58,1.73,1.73,0,0,0-.79-0.16,2.07,2.07,0,0,0-1.07.33,2.67,2.67,0,0,0-1,1.18,5.69,5.69,0,0,0-.42,2.34,2.48,2.48,0,0,1,2.11-1.2A2.46,2.46,0,0,1,18.66,14.27Zm-0.22,4.58a2.65,2.65,0,0,0,.5-1.7,2.87,2.87,0,0,0-.26-1.27A1.89,1.89,0,0,0,18,15.09a1.53,1.53,0,0,0-.83-0.26,1.86,1.86,0,0,0-1.09.38,3,3,0,0,0-.86,1,3.36,3.36,0,0,0,0,.42A3.81,3.81,0,0,0,15.46,18,2.74,2.74,0,0,0,16.17,19,1.52,1.52,0,0,0,18.44,18.84ZM19,12L19,12.05,18.89,12C18.89,11.91,18.94,11.91,19,12Zm0.07,0L19,12l0,0C19.13,12,19.14,12.05,19.1,12Z"/>
    <path class="cls-1" d="M24.47,22.71V9.86h1.07V22.71H24.47Z"/>
    <path class="cls-1" d="M32.68,20.29V11.7l-2,.59-0.26-.62L33,10.31H33.8v10H32.68Z"/>
    <path class="cls-1" d="M40.68,20.29V11.7l-2,.59-0.26-.62L41,10.31H41.8v10H40.68Z"/>
  </g>
</svg>
