<?xml version="1.0" encoding="utf-8"?>
<!-- Generator: Adobe Illustrator 19.2.0, SVG Export Plug-In . SVG Version: 6.00 Build 0)  -->
<svg version="1.1" id="Layer_1" xmlns="http://www.w3.org/2000/svg" xmlns:xlink="http://www.w3.org/1999/xlink" x="0px" y="0px"
	 width="50px" height="32px" viewBox="0 0 50 32" style="enable-background:new 0 0 50 32;" xml:space="preserve">
<g>
	<path d="M11.3,11.6c0.5,0.9,0.8,2.2,0.8,3.7c0,1.6-0.3,2.9-0.8,3.8C10.8,20,10,20.5,9,20.5S7.2,20,6.7,19.1
		c-0.5-0.9-0.8-2.1-0.8-3.8c0-1.6,0.3-2.8,0.8-3.7C7.3,10.7,8,10.3,9,10.3S10.7,10.7,11.3,11.6z M7.6,12.3c-0.3,0.7-0.5,1.7-0.5,3
		c0,0.7,0,1.3,0.1,1.8l3.4-4.4c-0.2-0.5-0.4-0.9-0.6-1.2s-0.6-0.4-1-0.4C8.4,11.2,7.9,11.6,7.6,12.3z M10.4,18.4
		c0.3-0.7,0.5-1.7,0.5-3.1c0-0.6,0-1.2-0.1-1.6l-3.4,4.3C7.8,19,8.3,19.5,9,19.5C9.6,19.5,10.1,19.1,10.4,18.4z"/>
	<path d="M14.2,19.4l1.3-1.3c0.9-0.9,1.5-1.5,1.9-2c0.4-0.5,0.8-1,1-1.5c0.3-0.5,0.4-1,0.4-1.5c0-0.7-0.2-1.1-0.5-1.4
		c-0.3-0.3-0.7-0.4-1.2-0.4c-0.5,0-0.9,0.1-1.3,0.3c-0.4,0.2-0.6,0.4-0.8,0.7c-0.1,0.1-0.1,0.2-0.2,0.4c-0.1,0.1-0.1,0.2-0.1,0.2
		c0,0,0,0,0,0c0,0,0,0,0.1,0c0,0,0.1,0,0.1,0l0,0.1l-0.1-0.1l-0.8-0.6c0.3-0.6,0.8-1.1,1.3-1.4c0.6-0.3,1.2-0.5,1.9-0.5
		c0.9,0,1.5,0.3,2.1,0.8c0.5,0.5,0.8,1.2,0.8,2.1c0,0.6-0.1,1.1-0.4,1.7s-0.6,1.1-1.1,1.6c-0.4,0.5-1,1.1-1.8,1.9l-1.1,1.1h3.7
		c0.2,0,0.3,0,0.4,0s0.2-0.1,0.2-0.1H20v1.1h-5.9V19.4z"/>
	<path d="M24.5,22.7V9.9h1.1v12.8H24.5z"/>
	<path d="M32.7,20.3v-8.6l-2,0.6l-0.3-0.6l2.6-1.4h0.8v10H32.7z"/>
	<path d="M40.7,20.3v-8.6l-2,0.6l-0.3-0.6l2.6-1.4h0.8v10H40.7z"/>
</g>
</svg>
