<svg id="Layer_1" data-name="Layer 1" xmlns="http://www.w3.org/2000/svg" width="50" height="32" viewBox="0 0 50 32">
  <defs>
    <style>
      .cls-1 {
        fill: #323232;
      }
    </style>
  </defs>
  <title>counter10</title>
  <g>
    <path class="cls-1" d="M8.68,20.29V11.7l-2,.59-0.26-.62L9,10.31H9.8v10H8.68Z"/>
    <path class="cls-1" d="M19.28,11.62a7.34,7.34,0,0,1,.81,3.74,7.36,7.36,0,0,1-.8,3.78,2.64,2.64,0,0,1-4.58,0,7.36,7.36,0,0,1-.8-3.78,7.33,7.33,0,0,1,.81-3.74A2.59,2.59,0,0,1,19.28,11.62Zm-3.7.73a7.32,7.32,0,0,0-.51,3,10.46,10.46,0,0,0,.14,1.84l3.39-4.38A2.84,2.84,0,0,0,18,11.64a1.31,1.31,0,0,0-1-.41A1.58,1.58,0,0,0,15.58,12.35Zm2.85,6.07a7.29,7.29,0,0,0,.51-3.06,9.93,9.93,0,0,0-.11-1.6l-3.39,4.32A1.73,1.73,0,0,0,17,19.49,1.57,1.57,0,0,0,18.42,18.42Z"/>
    <path class="cls-1" d="M24.47,22.71V9.86h1.07V22.71H24.47Z"/>
    <path class="cls-1" d="M32.68,20.29V11.7l-2,.59-0.26-.62L33,10.31H33.8v10H32.68Z"/>
    <path class="cls-1" d="M40.68,20.29V11.7l-2,.59-0.26-.62L41,10.31H41.8v10H40.68Z"/>
  </g>
</svg>
