<svg id="Layer_1" data-name="Layer 1" xmlns="http://www.w3.org/2000/svg" width="50" height="32" viewBox="0 0 50 32">
  <defs>
    <style>
      .cls-1 {
        fill: #323232;
      }
    </style>
  </defs>
  <title>counter7</title>
  <g>
    <path class="cls-1" d="M11.28,11.62a7.34,7.34,0,0,1,.81,3.74,7.37,7.37,0,0,1-.8,3.78A2.53,2.53,0,0,1,9,20.47a2.53,2.53,0,0,1-2.29-1.33,7.37,7.37,0,0,1-.8-3.78,7.33,7.33,0,0,1,.81-3.74A2.59,2.59,0,0,1,11.28,11.62Zm-3.7.73a7.32,7.32,0,0,0-.51,3,10.45,10.45,0,0,0,.14,1.84l3.39-4.38A2.83,2.83,0,0,0,10,11.64a1.3,1.3,0,0,0-1-.41A1.58,1.58,0,0,0,7.58,12.35Zm2.85,6.07a7.28,7.28,0,0,0,.51-3.06,9.93,9.93,0,0,0-.11-1.6L7.43,18.08A1.73,1.73,0,0,0,9,19.49,1.58,1.58,0,0,0,10.42,18.42Z"/>
    <path class="cls-1" d="M18.52,11.38H14.26V10.32h5.65v0.62a89.79,89.79,0,0,0-3.17,9.34H15.48Q16.87,15.73,18.52,11.38Z"/>
    <path class="cls-1" d="M24.47,22.71V9.86h1.07V22.71H24.47Z"/>
    <path class="cls-1" d="M32.68,20.29V11.7l-2,.59-0.26-.62L33,10.31H33.8v10H32.68Z"/>
    <path class="cls-1" d="M40.68,20.29V11.7l-2,.59-0.26-.62L41,10.31H41.8v10H40.68Z"/>
  </g>
</svg>
