<svg id="Layer_1" data-name="Layer 1" xmlns="http://www.w3.org/2000/svg" width="50" height="32" viewBox="0 0 50 32">
  <defs>
    <style>
      .cls-1 {
        fill: #323232;
      }
    </style>
  </defs>
  <title>counter3</title>
  <g>
    <path class="cls-1" d="M11.28,11.62a7.34,7.34,0,0,1,.81,3.74,7.37,7.37,0,0,1-.8,3.78A2.53,2.53,0,0,1,9,20.47a2.53,2.53,0,0,1-2.29-1.33,7.37,7.37,0,0,1-.8-3.78,7.33,7.33,0,0,1,.81-3.74A2.59,2.59,0,0,1,11.28,11.62Zm-3.7.73a7.32,7.32,0,0,0-.51,3,10.45,10.45,0,0,0,.14,1.84l3.39-4.38A2.83,2.83,0,0,0,10,11.64a1.3,1.3,0,0,0-1-.41A1.58,1.58,0,0,0,7.58,12.35Zm2.85,6.07a7.28,7.28,0,0,0,.51-3.06,9.93,9.93,0,0,0-.11-1.6L7.43,18.08A1.73,1.73,0,0,0,9,19.49,1.58,1.58,0,0,0,10.42,18.42Z"/>
    <path class="cls-1" d="M19.32,15.94a2.51,2.51,0,0,1,.51,1.62A3.08,3.08,0,0,1,19.48,19a2.64,2.64,0,0,1-1,1.06,3.15,3.15,0,0,1-1.62.39,4,4,0,0,1-1.51-.29,3.32,3.32,0,0,1-1.22-.85l0.74-.88,0,0,0,0a3.4,3.4,0,0,0,.82.78,2,2,0,0,0,1.1.27A1.78,1.78,0,0,0,18.2,19a2.12,2.12,0,0,0,.48-1.46,1.82,1.82,0,0,0-.6-1.49,2.58,2.58,0,0,0-1.69-.5l-0.51,0v-0.9a2.73,2.73,0,0,0,1.94-.53,2,2,0,0,0,.52-1.44A1.46,1.46,0,0,0,18,11.62a1.38,1.38,0,0,0-1-.4A2.58,2.58,0,0,0,15.1,12l-0.67-.67a3.28,3.28,0,0,1,2.48-1,2.6,2.6,0,0,1,1.9.68,2.4,2.4,0,0,1,.7,1.8,2.53,2.53,0,0,1-.4,1.42,2.09,2.09,0,0,1-1.17.85A2.87,2.87,0,0,1,19.32,15.94Zm-4.49,2.42,0.06,0,0,0C14.81,18.36,14.81,18.33,14.83,18.36ZM15,18.44l-0.1,0L15,18.32,15,18.4A0,0,0,0,1,15,18.44Z"/>
    <path class="cls-1" d="M24.47,22.71V9.86h1.07V22.71H24.47Z"/>
    <path class="cls-1" d="M32.68,20.29V11.7l-2,.59-0.26-.62L33,10.31H33.8v10H32.68Z"/>
    <path class="cls-1" d="M40.68,20.29V11.7l-2,.59-0.26-.62L41,10.31H41.8v10H40.68Z"/>
  </g>
</svg>
