<svg id="Layer_1" data-name="Layer 1" xmlns="http://www.w3.org/2000/svg" width="50" height="32" viewBox="0 0 50 32">
  <defs>
    <style>
      .cls-1 {
        fill: #323232;
      }
    </style>
  </defs>
  <title>counter8</title>
  <g>
    <path class="cls-1" d="M11.28,11.62a7.34,7.34,0,0,1,.81,3.74,7.37,7.37,0,0,1-.8,3.78A2.53,2.53,0,0,1,9,20.47a2.53,2.53,0,0,1-2.29-1.33,7.37,7.37,0,0,1-.8-3.78,7.33,7.33,0,0,1,.81-3.74A2.59,2.59,0,0,1,11.28,11.62Zm-3.7.73a7.32,7.32,0,0,0-.51,3,10.45,10.45,0,0,0,.14,1.84l3.39-4.38A2.83,2.83,0,0,0,10,11.64a1.3,1.3,0,0,0-1-.41A1.58,1.58,0,0,0,7.58,12.35Zm2.85,6.07a7.28,7.28,0,0,0,.51-3.06,9.93,9.93,0,0,0-.11-1.6L7.43,18.08A1.73,1.73,0,0,0,9,19.49,1.58,1.58,0,0,0,10.42,18.42Z"/>
    <path class="cls-1" d="M15.39,20.1A2.52,2.52,0,0,1,14,17.78a2.71,2.71,0,0,1,.54-1.62A3.6,3.6,0,0,1,16,15a2.85,2.85,0,0,1-1.1-1,2.52,2.52,0,0,1,.27-3.12,2.62,2.62,0,0,1,2-.7,2.68,2.68,0,0,1,2,.66,2.31,2.31,0,0,1,.66,1.7,2.43,2.43,0,0,1-.43,1.37,3.12,3.12,0,0,1-1.15,1,3.46,3.46,0,0,1,1.39,1.14,2.73,2.73,0,0,1,.53,1.61,2.64,2.64,0,0,1-.38,1.39,2.62,2.62,0,0,1-1.07,1,3.45,3.45,0,0,1-1.61.36A3.52,3.52,0,0,1,15.39,20.1Zm3-1.14a1.66,1.66,0,0,0,.5-1.24,2,2,0,0,0-.58-1.35,3.51,3.51,0,0,0-1.55-.92,2.9,2.9,0,0,0-1.21.91,2.1,2.1,0,0,0-.47,1.31,1.7,1.7,0,0,0,.52,1.26,1.91,1.91,0,0,0,1.4.51A1.9,1.9,0,0,0,18.42,19Zm-0.18-5.26a1.86,1.86,0,0,0,.38-1.1,1.42,1.42,0,0,0-.42-1A1.56,1.56,0,0,0,17,11.14a1.52,1.52,0,0,0-1.14.41,1.39,1.39,0,0,0-.39,1,1.5,1.5,0,0,0,.43,1.1,5.75,5.75,0,0,0,1.33.91A3,3,0,0,0,18.25,13.69Z"/>
    <path class="cls-1" d="M24.47,22.71V9.86h1.07V22.71H24.47Z"/>
    <path class="cls-1" d="M32.68,20.29V11.7l-2,.59-0.26-.62L33,10.31H33.8v10H32.68Z"/>
    <path class="cls-1" d="M40.68,20.29V11.7l-2,.59-0.26-.62L41,10.31H41.8v10H40.68Z"/>
  </g>
</svg>
