<svg id="Layer_1" data-name="Layer 1" xmlns="http://www.w3.org/2000/svg" viewBox="0 0 2192.1 994.25"><defs><style>.cls-1{fill:#efc69a;}.cls-2,.cls-5{fill:#3d3d3d;}.cls-2{opacity:0.7;}.cls-3{fill:#060606;}.cls-4{fill:#1d1d1d;}.cls-6{fill:#020202;}.cls-7{fill:#d1d1d1;}.cls-8{fill:#989898;}.cls-9{fill:#d6d6d6;}.cls-10{fill:#38394d;}.cls-11{fill:#b1b2b2;}.cls-12{fill:#343a43;}.cls-13{fill:#c6c68f;}.cls-14{fill:#c6c658;}.cls-15,.cls-24,.cls-29,.cls-30,.cls-32{fill:none;}.cls-15{stroke:#343a43;}.cls-15,.cls-16,.cls-24,.cls-29,.cls-30{stroke-miterlimit:10;}.cls-16{fill:#f9f7dc;stroke:#33344e;}.cls-17{fill:#daede3;}.cls-18{fill:#f4faf7;}.cls-19{fill:#373644;}.cls-20{fill:#d1d379;}.cls-21{fill:#afac51;}.cls-22{fill:#d9d9d9;}.cls-23{fill:#ddd;}.cls-24,.cls-29,.cls-30{stroke:#060606;}.cls-25{fill:#434343;}.cls-26{fill:#fff;}.cls-27{fill:#f4d0a4;opacity:0.6;}.cls-28{fill:#a0a0a0;}.cls-29{stroke-width:4px;}.cls-30{stroke-width:2px;}.cls-31{fill:#757575;}.cls-32{stroke:#020202;stroke-linecap:round;stroke-linejoin:round;stroke-width:3px;}.cls-33{fill:#8e8e8e;}.cls-34{fill:#bdc1be;}.cls-35{fill:#bababa;}.cls-36{fill:#949494;}.cls-37{fill:#e4e4e4;}.cls-38{fill:#0d0d0d;}.cls-39{fill:#1e1e1e;}.cls-40{fill:#d5d5d5;}.cls-41{fill:#6a6a6a;}.cls-42{fill:#555;}.cls-43{fill:#f2f2f2;}.cls-44{fill:gray;}.cls-45{fill:#a6a6a6;}.cls-46{fill:#575757;}.cls-47{fill:#f5f5f5;}.cls-48{fill:#515151;}.cls-49{fill:#696969;}.cls-50{fill:#111;}.cls-51{fill:#c6c5c4;}</style></defs><title>bloom mobile</title><path class="cls-1" d="M386.12,393.91c-39.49-.83-88.76,18.35-126.79,28.09-26.18,6.7-108.87,1.47-133.48,13.05-6.41,3,80.64,8.13,74.49,11.31s-105.5,4.43-111.16,7.72c-6.37,3.72,62.89,9.77,57.44,13.57-4.22,3,21.7,8.51-35.95,12-19.43,1.18-96.6,9.55-90.8,21,.79,1.56,67,12,68.35,13.55,1.76,2,60.9,39.33,108.86,45.6,45.26,5.92,104.76,18,135.21,40.79,5.77,4.32-27.58,11.48-18.63,19.91,11.42,10.75,65.27,23.15,71.78,29.87,8.32,8.59-50.51,2.78-69,1.26-11.82-1-134.83-3-127.45,6.68,13.81,18.14,168.5,71.7,191.61,77.88,25.77,6.9,142.84,23,151.65,34,8.39,10.49-34.24,38.18-25.06,48.43,85.44,95.37,136.1,117.46,406.63,137.51,526.12,39,813.23-17,882.75-212.7s716.56-265.6,142.09-315.26c-145.32-12.57-661.5,16.76-1077.26,10.69C663.08,436,487.62,396.06,386.12,393.91Z"/><path class="cls-2" d="M734.32,618.88S422.7,693.44,667.27,739s11.39,183.45,892.9,76.85c133.07-16.09,412.2-343.17,330.68-357.56s-626.62,23.93-724.93,38.31S734.32,618.88,734.32,618.88Z"/><path class="cls-3" d="M1743.63,577.68s-.33,24.79,8.92,28.76,64.14,9.25,67.77,6.61,32.4-52.23,27.44-108.1c-1.69-19,2.72-66.55.68-76-4-18.26-23.31-1.9-32.46-1.73-13.87.25-33.83,53.15-33.83,53.15Z"/><path class="cls-4" d="M1490.59,806.83s74.39-33.32,64.54-175.71S1449.85,496.3,1435.46,499.33s-53,262.82-36.35,275.69S1453.31,818.18,1490.59,806.83Z"/><path class="cls-3" d="M1377.36,796.43s75.94,21.19,93.61,16.77,19.62-6.37,19.62-6.37-42.7,10.4-56.34-57.77-7.39-171.87,25.7-202c23.81-21.71,57.58-25.6,73.17,4.64s24.56,89.76,22.2,110.55c0,0,32.13,58.58,1.24-143-5.37-35-73.52-14.29-95.73-5.32s-88.27,118.63-88.27,173.69S1377.36,796.43,1377.36,796.43Z"/><path class="cls-4" d="M1396,732.13s21.08,53.62-41.52,70.14S1089.19,828,1038,812.71c0,0-3.75-11.28-9-11.63s-154.47-17.84-158.35-18.82-62.2-34-62.2-34-20.9-.49-27.7-5.35-36.45-27.21-36.45-38.39,22.36-43.73,22.36-43.73Z"/><path class="cls-5" d="M1497.73,550s-65.82,6.74-62.08,156.32c0,0,17.95,137.62,80.78,60.58S1538.12,529.07,1497.73,550Z"/><path class="cls-6" d="M1444,631.8c3.44-20.69,20.15-69.12,51.27-66.38s37.08,38.91,39.83,58.6-4.58,118.1-34.79,136.87S1420.85,771.38,1444,631.8Z"/><path class="cls-7" d="M1472.62,653l-28-22.09,2.11-8.44,28.43,25.89s4.64-4.36,1.12-16.47-18.43-35.46-18.43-35.46,2.53-8.58,3.8-5.91,17.31,39.83,19.13,40.25-1.31-49.25-3.3-55.2,2.78-2,2.78-1,10.11,45.41,12.89,49,.2-56.71,2-55.92,4.76,54.93,4.76,54.93,10.19-50.95,11.89-46.92-1.7,46.07-1.7,46.07,1.91,1.06,3-.63,9.12-31.43,10.82-28.45,4,8.91,3,12.31-10.19,31.42-14.43,34.18-9.13,12.1,3.82,4.25,13.46-14.11,13.46-9-19.87,20.37-20.07,25.2,3.48,7.33,10.42,6.36,13.5-9.26,13.31-4.24-7.33,17-15.62,14.08-8.3-6.47-8.3-2.22,11.47,20.67,11.47,17.41-1.56-10.61,1.55-10.76,9.63-3.53,9.63-3.53-3.11,29.3-6.51,30-12.46-17-17.13-18-10.62-.14-7.64,3.11,11.55,9.94,12.67,22.84,1.31,29.16-.18,30.47-3.74,3.18-3.74,3.18-1.31-41.13-8.79-46.18-2.8-.37-2.24,2.06,4.67,19.63,3.92,34.77,1.87,22.62-4.11,23.18-3.92-24.49-3.92-39.07-3.37-22.43-3.37-14.77-.93,45.62-3.93,50.85-14,6.92-17.94,6.73,7.85-7.29,11.78-25.61,6.16-28.23,3.55-30.1.56,5.8-1.87,11.78-12.34,35.33-16.08,38.88-11-.18-12.15-2.43-1.12-3.74,3.93-13.08,18.88-23.93,18.88-30.48-8.23,4.68-15.89,17.2-11,18.7-12.15,16.45-3.37-2.8-3.56-7.47-2.8-6.73,0-10.85,26.55-20.75,26.36-26.92,1.5-12.89-5.61-7.1-25.61,22.25-25.61,19.82-4.48-15.33-1.12-15.89,28.23-12.9,28.23-17.2,4.3-10.1-3.93-9.54-24.49-.37-24.49-.37l1.13-9.91s26.92,5.42,28.22,2.25S1472.62,653,1472.62,653Z"/><path class="cls-8" d="M1479.19,640.91s-14.87,25.93-3.43,44.62S1479.19,640.91,1479.19,640.91Z"/><path class="cls-5" d="M751.52,390.61l-2.26,30.19s6.44,1.28,6.44,4.07,5.22,15.22-10.93,14.1c-5.91-.4-5.28,5.94-10.12,8.36a19.43,19.43,0,0,1-9.75,1.54s4.9,24.74.44,27-21.17-1.39-21.17-1.39L695,497.84s-37.35-.5-44.92,0-90.34,34.83-130.22,43.41c0,0-9.83,30.14-45.38,28.13S129.68,532,272.73,491.48,751.52,390.61,751.52,390.61Z"/><path class="cls-5" d="M724.9,448.87c-2.81-4.15,1.23-25.32-11-27.14S683.05,460,683.05,460c-5.79,2.8-125.53,33.76-131.73,35.24s-2.66-.12-2.66-.12,5-43.54-25.3-42.63-43,2-65.71,58.56l-7,8.92"/><path class="cls-5" d="M693.42,434.32S656.58,448,676,490c0,0,31,30,40-28.06C716,462,717.37,419.85,693.42,434.32Z"/><path class="cls-9" d="M696.55,440s-16.83,10.82-11.85,37.11,19.24,16,20.27,15.12,16.67-29,7.56-49.83C712.53,442.41,710.81,432.62,696.55,440Z"/><path class="cls-10" d="M703.36,441s-14.91,3.76-12.54,29.43,14.42,13.53,16,11.06,13.72-23.7.1-38.91Z"/><path class="cls-11" d="M699,445.37s9,.2,6.81,15-10.66,21.23-12.24,16.49S692.7,450.4,699,445.37Z"/><path class="cls-5" d="M478.4,476s15.76-15.36,33.14-4.45,16.35,19.85,14.95,38.39c-5.1,67.45-48.49,54.54-57,41.21S462.24,504.25,478.4,476Z"/><path class="cls-9" d="M501.22,474.82c-16.17,7.78-25,37.33-16.32,69.9,0,0,5,12.13,8.86,14.48s28.54,5.62,32.73-49.29C529.63,468.62,508.78,471.18,501.22,474.82Z"/><path class="cls-10" d="M509.86,485s-24.18,4.92-15.2,55.07S545.18,488.41,509.86,485Z"/><path class="cls-11" d="M508.38,495.28s-16.94,3.45-10.65,38.58S533.13,497.69,508.38,495.28Z"/><path class="cls-12" d="M333,511.11s20.13,9.8,31.48,2.58,6.71-15,6.71-15Z"/><path class="cls-13" d="M744.54,384.89s-36.29-1.73-37.44-4.61-16.13-42.63-30-50.69-174-19-220-3.46l-43.77,57.6S305.63,405.62,291.8,412c0,0-8.06,19.58,4,37.44l3.8,3.76L288.43,459s-.94,12.33,3.92,18.12l28.49,12s105.29,37.65,131.25,31.29c0,0,3.84-15.07,26.92-50.45,9.82-15.05,67.73-40.15,67.9,26.62L683.05,460s27-59.32,38.67-30.19l3.18,19.07s18.54,0,16.42-23.84l7.94-4.23a62,62,0,0,1,2.41-16.19S758.41,389.66,744.54,384.89Z"/><path class="cls-5" d="M291.8,412l141.08,29.88s6,42.22,8.89,44.76,11.11.95,12.07,3.49,3.81,21,3.81,21l-5.56,9.34s-90.76-10-159.74-43.31c0,0-4.89-12.11-3.92-18.12l11.2-5.79S281.85,435.32,291.8,412Z"/><path class="cls-14" d="M551.57,401.18s-122.52-18-138.23-17.45L291.8,412s123.12,31.64,141.08,29.88c0,0,15.05-15.57,118.69-35.37Z"/><path class="cls-14" d="M457.11,326.13s106,5.77,109.45,7,9,6.23,9,6.23l2.18-4.36s74.44-9.59,99.38-5.42C677.15,329.59,560.66,304.29,457.11,326.13Z"/><path class="cls-15" d="M435,451.53S550.34,426.84,567.57,424L748.2,395.65"/><path class="cls-15" d="M544.57,475.43l143.3-35s-3.92,16.14-10.07,18-110.87,30.42-110.87,30.42l-4-3.07s5.91-44.44,5.44-60.28L562.68,403s17.49-62.88,20.33-64.29,71.14-7.09,88.16-2.6l8.27,6.61,18.44,44s4.73,11.11,5.91,13.23c0,0,2.36,13.71-.71,20.57,0,0-11.69,7.48-15.17,18.29"/><path class="cls-12" d="M294.66,419.29s125.7,28.26,131.44,29.64,10.57,30.79,5.74,30.56-130.28-28.95-133.5-32.63S290.07,426,294.66,419.29Z"/><path class="cls-5" d="M575.58,337.51s-16,64.77-28.66,63-133.58-16.77-133.58-16.77,42.26-57.82,43.77-57.6,102.07,4.82,109.45,7Z"/><path class="cls-14" d="M295.36,421.82s24.12,4.6,24.37,6.46-1.25,9,.37,13.06,3.73,9.2-1.12,9.07-19.77-4.47-20.14-5.34S293,429.65,295.36,421.82Z"/><path class="cls-16" d="M302.79,427.76s-.8,13.65,1.17,15.92,14.26,4.12,14.44,2.4-2.15-6.33-2.15-7.38.84-6.88-.08-8S302.79,427.76,302.79,427.76Z"/><path class="cls-14" d="M322.57,429.78l-.13,4.12L382,444.58s1.55-3.73.39-3.86S322.57,429.78,322.57,429.78Z"/><path class="cls-14" d="M322,435.81v3.28s20.09,4.26,20.42,3.82,1.53-2.4.66-3S322,435.81,322,435.81Z"/><path class="cls-14" d="M322.38,440.62v3.27s20.1,4.26,20.43,3.83,1.53-2.41.65-3S322.38,440.62,322.38,440.62Z"/><path class="cls-14" d="M350.78,441.6v3.28s30.37,5.57,30.7,5.13,1.42-2,.54-2.51S350.78,441.6,350.78,441.6Z"/><path class="cls-14" d="M350.56,447v3.28s30.37,5.57,30.7,5.13,1.42-2,.54-2.51S350.56,447,350.56,447Z"/><path class="cls-14" d="M323.48,445.86l.43,2.95S380.49,461,380.82,460.6s1.42-2,.55-2.51S323.48,445.86,323.48,445.86Z"/><path class="cls-14" d="M325.81,452l-.76,3.06s55.13,12.82,55.46,12.38,1.4-2.31.53-2.86S325.81,452,325.81,452Z"/><path class="cls-14" d="M385.44,443.27s-.86,22.12,3.93,25.08,42.13,8.34,42.13,8.34l-3.93-26.15Z"/><path class="cls-16" d="M390.23,446.33s-1.53,17.24,1.15,19.82S417,472,417,472l-1.25-21.06Z"/><path class="cls-14" d="M300.75,454.29s8.76,3.46,3.84,3.7-6-2.08-6-2.08Z"/><path class="cls-14" d="M296,457.33s41.14,16.84,76.55,24.3S420.42,492,420.42,492l-3.65,2.61s-93.56-20-123.41-35.59Z"/><path class="cls-14" d="M421.9,494.1l4.33-1.73,7.77.44s-4.46,2-7.2,1.72S421.9,494.1,421.9,494.1Z"/><polygon class="cls-17" points="428.21 496.76 444.45 495.24 450.37 501.5 449.19 511.32 433.96 515.54 428.21 506.41 428.21 496.76"/><path class="cls-17" d="M419,496.89l7.36.36s-.54,8.07.18,10.23,7.54,8.44,5.2,8.44-9.51-.54-9.51-.54S418.45,508.74,419,496.89Z"/><path class="cls-17" d="M415.58,497.89l-.21,0c-.89-.19-89.54-18.88-124.6-35.44a1,1,0,1,1,.85-1.81c34.85,16.46,123.28,35.1,124.16,35.29a1,1,0,0,1-.2,2Z"/><path class="cls-17" d="M419.15,507.82l.58,4.09s-114.8-26.28-124.79-36.05,8.66,5.1,55.73,16S419.15,507.82,419.15,507.82Z"/><path class="cls-14" d="M322.38,490.81v12.45a4.81,4.81,0,0,0,3.19,4.53l26.69,9.53a4.81,4.81,0,0,0,6.43-4.53V497.67a4.82,4.82,0,0,0-3.61-4.66l-26.69-6.86A4.82,4.82,0,0,0,322.38,490.81Z"/><path class="cls-5" d="M562.68,403l10.81-1.31s-1.8,6.73,9.75,5.2c10.24-1.35,3.84-6.84,3.84-6.84l110.8-13.36s-12.9-35-18.44-44l-8.27-6.61s-31.32-6-88.16,2.6Z"/><path class="cls-15" d="M639.73,393.85s5.79,10.22,7.52,19.09-1.73,54.19-2.7,55.34"/><path class="cls-18" d="M435.54,379.87s-1.17-9.65,2.92-13.74S456,336.9,462.73,336.9s40.92-.59,40.92-.59l-8.18,39.76Z"/><path class="cls-18" d="M513,336.42l-2.74,38.7,33.66-.84s.21-30.71,6.1-34.28Z"/><path class="cls-18" d="M563.87,371.13l-14.3.84s1.26-27.56,5-30.71S563.87,371.13,563.87,371.13Z"/><path class="cls-19" d="M504.29,332.93s1.32,5.63-.37,5.63-9.38-.37-7.32,6,13.51,4.88,16.89,5.06,6.75-9.57,2.25-10.13-6.76-1.12-6.57-3.19.38-3.56.38-3.56Z"/><path class="cls-5" d="M416,382.41s15-4.29,43.65-2,27.86,3.11,41.11.58,44.43,1.56,45.21,6.63,6.82,6.43,7.6,6.62-2,6.19-6.65,6.21S425.55,386.11,416,382.41Z"/><path class="cls-19" d="M509,381.87s6.67-7.47,14.93-11-1.11-22.4,7.15-21.6,10.64,3.49,15.25,3.49,8.89-7,11.27-1.27,3.66,28,3.66,28-3.5,16.83-16.36,16.35S509,381.87,509,381.87Z"/><path class="cls-18" d="M586.83,343.86s-4.13,2.07-3.36,8.78a51.56,51.56,0,0,0,2.84,11.87l39.75,6.2s-5.93-26.59-3.35-28.91S586.83,343.86,586.83,343.86Z"/><path class="cls-18" d="M634.58,341.54,639,371.48s38.46,1.55,44.14,4.39c0,0-2.07-23-17.81-33.55Z"/><path class="cls-20" d="M581,397.9s-5-5.64-2.48-9.69,22.52-11,19.15,3.83c0,0-.23,7-13.52,3.83,0,0-.44,3.32-1.8,2.67Z"/><path class="cls-20" d="M581.6,402s-4.38,3.25-2.59,3.3,8.1-.24,7.82-1.09-3.25-1.65-3.39-2.45.52-2.92-.57-3S581.6,402,581.6,402Z"/><path class="cls-21" d="M512.89,380.19s9.6-12.71,25.33-6.22,21.51,6.57,18,12.8-3.46,7.46-5.33,7a8.36,8.36,0,0,1-5.69-7.2S536.62,380.54,512.89,380.19Z"/><path class="cls-21" d="M527.82,367.83s20.89,2.67,24.18,6.58,1.86-20.26.35-20.26-10.13.89-12.71-.8-6-5.07-8.35-2.76S527.82,367.83,527.82,367.83Z"/><path class="cls-5" d="M586.41,375.15s2.14-21.62,8.81-21.89,3.74,1.6,6.41,2.14,11.75.8,11.75.8,4.8-4.27,7.74-.54,2.74,16.08,2.74,16.08l4.9,19.6s-26.91,6.5-28.11,4.8S599,383,597.75,383,586.41,375.15,586.41,375.15Z"/><path class="cls-21" d="M618.16,383.94s-3.9-8.8-3.4-17.4-3.11-6.51-9.41-7.21-10.9-4.8-12.8-.6-1.6,17.91-1.3,18.61,4.8,6.2,6.5,5.7S618.16,383.94,618.16,383.94Z"/><path class="cls-21" d="M621.56,385.94s-21.51-2.5-21.81-1.3-1.1,7.6,1,7.7S621.36,393.94,621.56,385.94Z"/><path class="cls-12" d="M593.54,412.41s-1.53-6.85,6.77-8.29,9.11,5,9.11,5Z"/><path class="cls-12" d="M646.88,403.82s-.92-7,7.48-7.67S663,402,663,402Z"/><path class="cls-5" d="M328.55,489.86s39.07,10.79,25.3,9.68-35.34-.37-26,1.49,32.74,7.44,24.55,7.06S328.55,489.86,328.55,489.86Z"/><path class="cls-22" d="M944,534.18s-52.16,3.21-56.44,54.3,46.4,5.39,48.25-2.67C938.74,573.07,978,535,944,534.18Z"/><path class="cls-23" d="M769.07,671.3,746,583.57a6.7,6.7,0,0,1,0-3.27c3.81-15.72,39.13-136.1,232-162.87l.42-.08c7.12-1.5,197.82-41.73,223.33-51.94,26-10.39,97.09-69,153.08-77.11,55.79-8.1,185.79-32.25,316,4.21a6.91,6.91,0,0,0,2.44.21c3.76-.3,16.92,1.34,28.94,35.53a6.63,6.63,0,0,0,5.73,4.4c14.06,1.12,58.62,5.54,80.83,17.85a6.53,6.53,0,0,0,5.37.5c7-2.52,27.19-5.17,47.4,36.45,10.62,21.85,13.54,36,13.38,45.07a6.66,6.66,0,0,1-12,3.89c-4.76-6.38-11.78-10.33-18.9,5.24-12.23,26.74-30.38,56.45-26.42,99.19a6.64,6.64,0,0,1-3,6.19c-27.7,18-214.76,139.27-231.09,142l-2.33.39a6.66,6.66,0,0,1-7.05-9.55c7.92-15.87,17.21-49.27,6.44-111.33-16.65-96-92-59-106.73-31.55-14.56,27.19-46.5,77.69-57.55,192.12a6.69,6.69,0,0,1-3,5C1376.31,744.94,1273.6,796,883,755a6,6,0,0,1-.72-.12c-5.06-1.09-59.3-14.2-112-81.12A6.65,6.65,0,0,1,769.07,671.3Z"/><path class="cls-24" d="M1209.22,372.06s108.58-71.46,134.48-75.6,217.5-13.88,294.15-1.45c0,0-11.4,75.61-30,82.86s-59.85,18.54-65.49,20.8-137.5,6.65-142.78,1.37-1.93-8.19-42-10.28S1209.22,372.06,1209.22,372.06Z"/><path class="cls-25" d="M1260.48,370.74l113,19.2s43.87-13.16,75.5-4.76,78.24,11.17,95,9.56,70.54-10,76.47-28.82c4.21-13.34,19.26-70.84,19.26-70.84s-206.43-15.44-287.18.36c-62,12.12-141.45,76.69-141.45,76.69Z"/><polygon class="cls-26" points="1238.29 369.38 1430.79 290.92 1459.98 291.83 1238.29 369.38"/><polygon class="cls-26" points="1281.07 370.29 1473.56 291.83 1502.76 292.74 1281.07 370.29"/><path class="cls-27" d="M1251.78,369.35l113,19.2s44-16.42,75.67-8,78.07,14.41,94.88,12.81,70.54-10.05,76.47-28.82c4.21-13.34,19.25-70.84,19.25-70.84s-206.42-15.45-287.18.36c-62,12.12-141.44,76.69-141.44,76.69Z"/><path class="cls-28" d="M1387.69,736.09s19.84-200.34,103.15-241,221.92-84.76,286.3-96.2c0,0,59.91,1.1,14.43-46.71,0,0,25.11-16.5,50,35.27,0,0,21.76,39.47,7.35,60.24,0,0-12.73-37.4-28.95.63,0,0-25.43,41.72-22.46,90.26a10.93,10.93,0,0,1-5,9.81c-32.6,21.23-200.31,130-229,140.63l-2.46.41a6.7,6.7,0,0,1-7.1-9.61c8.54-17,19.13-53.57,6-120.24,0,0-27.31-106.37-101.29-23.37,0,0-38.36,29.71-62.7,195.92Z"/><path class="cls-29" d="M1239,545.81s-8.47-43.44-77.33,5.29c0,0-47.67,43.44-33.37,66.21S1203,595.06,1203,595.06s3.17,39.73,51.9,22.78,116-92.16,75.75-106.46C1330.63,511.38,1290.9,498.14,1239,545.81Z"/><path class="cls-30" d="M790.06,546.61s-37.74,18.24-3.39-28.42,65.31-59,62.34-45.8-4.66,19.51-4.66,19.51,18.24-8.06,10.18,6.36S836.72,547,792.61,569.09C792.61,569.09,774.37,573.75,790.06,546.61Z"/><path class="cls-5" d="M1155.06,557.43s-125.48-1.57-127-1.57c0,0,9.5,16.07,4.5,21.06l104.61,1.79Z"/><path class="cls-5" d="M1130.89,585.53s-20.86,15.9-73,13.41-78-2-78-2,6.46,18.89,9.94,18.89,125.7,7.94,136.14-6.46C1125.93,609.38,1126.42,589.5,1130.89,585.53Z"/><path class="cls-31" d="M1028,555.86a26,26,0,0,1,4.5,21.06s-42.41,4.08-57.7,16.31c0,0,.41,3.75,2.72,3.73h2.32l8,17.74s-43.37,4.23-55.27,12.43-40.76,34.1-42.07,36.72-5.25,12.79-3.93,16.73-11.81,6.88-21.64,3.6,29.18-28.85,59-55.41,90.5-74.43,94.11-74.43A57.52,57.52,0,0,1,1028,555.86Z"/><path class="cls-5" d="M844.19,521.25s28.8,15.53,33.6,15.53c0,0-6.78,11-8.47,10.72s-13.55-11-22-7.9a83.83,83.83,0,0,0-14.68,7.06S843.35,539.6,844.19,521.25Z"/><path class="cls-5" d="M823.17,548.08s.32,9.4,6.53,14.5c0,0-14.18,7.33-35.69,6.38C794,569,819.34,554,823.17,548.08Z"/><path class="cls-5" d="M852.84,575.62l-5,14.54L823,564.92l6.69-2.34S848.64,576.39,852.84,575.62Z"/><path class="cls-32" d="M992.8,572.25s-31.34,3-45.81,1.81"/><path class="cls-5" d="M1663.9,385.06s-18.33-21.28-8.87-58.52,17.16-33.64,17.16-33.64,15.78-5,31.37,39.43c0,0,82.4,4.56,68.21,19s-51.13,38.42-96.64,43.44C1675.13,394.81,1668.92,392.75,1663.9,385.06Z"/><path class="cls-33" d="M890.51,663.84s248.78,9.84,309.92,5.47,93.17-30.57,115-80.07c0,0,104.69-22.5,114.93-20.64,0,0-37.35,101.91-38.44,166.22,0,0-86.3,47.89-325.54,33,0,0-179.39-8-204.55-19.72-5.19-2.42-62.38-31.8-92.41-75.46L745.57,582l91.76,70s9,26.21,19.32,24.39S890.51,663.84,890.51,663.84Z"/><path class="cls-34" d="M880.11,561.92s41.92-42.85,70.88-31S923.19,604.3,909.06,611s-49.33,23.63-50.95-14.36C858.11,596.66,859,579.75,880.11,561.92Z"/><path class="cls-5" d="M936.46,538s-34,5.59-42.6,40.24l20.87-11.84Z"/><path class="cls-5" d="M942.27,540s-17.43,23-17.43,25.61,9.26,21.74,11,20.23,22.16-26.47,18.07-36.58S942.27,540,942.27,540Z"/><path class="cls-5" d="M916,574.19l-23,11.19s-2.79,22.38,22.6,19.8l15.28-14.42Z"/><path class="cls-3" d="M1191.33,763.85s-8-63.19-118.86-76.23c0,0-72.72-7.52-81.74-5.52s108.32,64.2,74.22,73.72S1191.33,763.85,1191.33,763.85Z"/><path class="cls-3" d="M960.14,682.6s67.7,27.08,81.74,77.24c0,0-149.45-7.53-162-14.55s-62.34-33.06-64.61-40.41c0,0-6.79-42.45,0-51,0,0,34,28.31,43.58,28.31S960.14,682.6,960.14,682.6Z"/><path class="cls-3" d="M809.2,650.37s-5.31,35.14-3,46.36c0,0-40.46-24.21-36.92-62.9,0,0-.88-8.86,14.48,1.47S809.2,650.37,809.2,650.37Z"/><path class="cls-35" d="M1161.29,549.11s106.84-64.33,101.23-71.34-77.08-9.81-77.08-9.81l149-49.62s114.74,6.75,131.13,2.89,24.1-6.75,24.1-6.75S1291.23,468.32,1161.29,549.11Z"/><path class="cls-35" d="M893.05,481.9s23.67,16.18,34.32,18.15c0,0-40.24,24.07-46.56,35.51,0,0-30.62-8.11-36.62-14.31,0,0,23.6-32.64,33.07-36.59S893.05,481.9,893.05,481.9Z"/><path class="cls-35" d="M845.76,490.19c76.45-64.35,195.14-82.4,195.14-82.4-64.15,4-184.55,81.61-184.55,81.61Z"/><polygon class="cls-19" points="1198.69 403.12 1170.48 410.27 1157.77 410.67 1186.37 401.93 1198.69 403.12"/><polygon class="cls-19" points="1142.67 408.68 1152.6 401.53 1129.16 406.7 1142.67 408.68"/><path class="cls-5" d="M1334.47,418.34l27.5,1.47,13.9-8.74S1349.09,408.53,1334.47,418.34Z"/><path class="cls-5" d="M1381.07,419.42s15.93-11.95,43.24-6.26l-8.53,7.69Z"/><path class="cls-5" d="M1432.12,421.65s23.47-13.36,50.78-7.67l-19.64,8.12Z"/><path class="cls-5" d="M1188.41,371.51s-32,17.8,12.32,21.45,101.36-9.58,139.71-3.65l-131.22-17.25s108.57-72.37,134.48-75.6,221.74-15,294.15-1.45c0,0-165.56-18.31-295.43-4.67,0,0-61,21.75-96,48.55Z"/><path class="cls-6" d="M865.39,557.16c2.32.78,4.5,1.66,6.69,2.51l6.5,2.53c2.16.81,4.33,1.56,6.53,2.29s4.43,1.27,6.81,1.91a20.18,20.18,0,0,1-7.31.39,32.46,32.46,0,0,1-7.09-1.78,38,38,0,0,1-6.51-3.25A27.19,27.19,0,0,1,865.39,557.16Z"/><path class="cls-33" d="M768.33,542.55s-9.33,19.23-1.41,24.6S840.44,611,840.44,611s-5.09,28-3.11,41c0,0-81.44-48.07-85.12-61.08S761.26,550.47,768.33,542.55Z"/><path class="cls-32" d="M1308.08,586.3s.44,3.06,12.26.44,101.08-21.44,109-21"/><path class="cls-36" d="M932.58,627.12s179,8.26,200,2.51,18.18-6,18.18-6-27.32,7.46-26.19-14.43c0,0-.31,9-58.93,8.37s-77.83-2.92-77.83-2.92S943.21,619.12,932.58,627.12Z"/><path class="cls-36" d="M1032.51,576.92l104.61,1.79-6.23,6.82s-9.85,13.9-63.21,12.63-90.15-1.2-90.15-1.2-5.13-5.58,5-8.54S1032.51,576.92,1032.51,576.92Z"/><path class="cls-36" d="M1389.07,393.55s-144.32,36.08-188,52.54-184,76.36-217.42,124.29l11.29.26s17.66-14.93,23.11-16.31l10,1.53s99.62-71.53,157.43-87.9Z"/><path class="cls-36" d="M927.37,500.05S888,528.29,881.14,540.43,864.77,557.32,854,582.14s-8.33,90.55,9.75,83.68,25.67-8.68,25.67-8.68L873.1,671.25s-18.8,11.21-24.59,1.08-15.91-17.72-9.76-48.82,19.86-69.69,39-86.73S927.37,500.05,927.37,500.05Z"/><path class="cls-36" d="M844.19,521.25s-.43,18.37-11.57,25.41c0,0,14.13-11.46,24.38-6s11,6.41,11,6.41-13.45,21.52-15.15,28.52c0,0-27.07-8.25-29.67-27.54C823.17,548.08,840.17,533.12,844.19,521.25Z"/><path class="cls-37" d="M1246.42,531.48s176.82-81,242.31-87.87l115.35-27s-25.13-4.18-79.95,9.52S1273.61,493.43,1246.42,531.48Z"/><path class="cls-30" d="M1239,545.81s-23.35,24.64-36,49.25"/><path class="cls-25" d="M1664.64,460.56s-96,21.82-87.29,61.1,2.91,88.75,34.19,79.29,110-48.62,140.81-64.93c0,0-103.79,49.45-104.12,46.51s13.7-85.1,7.83-114.45Z"/><path class="cls-3" d="M1591.66,595.28s4.87,14.1,82.78-22.58c0,0-62.56,31.51-68.68,30.57S1594.26,600.93,1591.66,595.28Z"/><path class="cls-22" d="M1565.77,538.91l14-6.27-1-5s54.17-23.82,71-25.83,18.56-4,14-.25S1594.36,540.41,1565.77,538.91Z"/><path class="cls-22" d="M1585.61,577.91s-15.57,7.14-9,6.38,77-30.59,85.76-42.88c0,0-7.78-1-18.56,2.51-9.18,3-48,24.18-58.71,30.88Z"/><path class="cls-38" d="M1663,305.73s11.13-3.38,23,14.52,43,30.23,60.7,28.53,28.3-2.9,26.85-.72-21.53,21-22.25,18.86-2.66-14-8-10.88-28.54,19.11-29.27,18.14-31.92-49.58-36-54.66-13.3-12.33-15.24-11.13S1663,305.73,1663,305.73Z"/><path class="cls-39" d="M1657,324.12s13.78,16,18.62,18.38,24.67,31.2,20.07,35.79-27.59,17-30.24,8.61-14-28.93-13.53-38.12S1657,324.12,1657,324.12Z"/><path class="cls-27" d="M1671.19,292.9s-18.16,13-19,62.33c0,0,4.22,2.1,3.81,9s8.44,22.71,8.44,22.71,6.58,8,9.7,7.91,70.62-10.3,98.42-46.75c0,0-.42-12.87-70-15.73C1702.56,332.33,1691.06,291.61,1671.19,292.9Z"/><path class="cls-9" d="M1650.29,354a10.93,10.93,0,0,1,6.7,10.2s17.76-6.7,17.62-7.57-15.15-12.53-1.75-19.08,31.74-8.74,47.62.29,14.7,19.37,9.75,23-14.41,9.9-24.46,12.09a70.81,70.81,0,0,1-20.68.87l-19.66,13.1s5.74,7.05,9.7,7.91-29.93,4.77-29.93,4.77Z"/><path class="cls-5" d="M1680.46,363.25s-19.89,7-19.67,9.72,2.8,1.68,10.28-1.68,16.09-5.47,15.31-7.48S1680.46,363.25,1680.46,363.25Z"/><path class="cls-28" d="M1769.25,342.68s28.14,7.06,20.51,12-57.29,30.77-78,33.47c0,0,69.19-29.43,69-33.92S1769.25,342.68,1769.25,342.68Z"/><path class="cls-35" d="M927.37,500.05s117.08-54.89,171-76.6c0,0-140.41,45.27-158.06,60.61S927.37,500.05,927.37,500.05Z"/><path class="cls-35" d="M1663.58,381.25s17.52-10,19.64-10,17.91-3.25,22.53-8.06,10.6-3.27,7.9-9.43-.59-13.32,2.68-14.48,7.51,1,9.44,2.12,13.55,11.17,4.46,19.45-26,12.51-26,12.51l-21,2.32-17.79,11.23Z"/><ellipse class="cls-40" cx="1356.35" cy="648.71" rx="33.97" ry="7.55" transform="translate(-86.95 227.54) rotate(-9.29)"/><path class="cls-41" d="M1160.42,560.72s7.31,19.77-16.54,44.27c0,0-11.18,15.47-1.94,15.9s26-4.29,26.86-8.16-.21-37.4,7.1-38,39.11-12.9,32.23-16.55-14.18,3.44-17.41,2.15-4.51-8.38-8.16-7.74S1160.42,560.72,1160.42,560.72Z"/><path class="cls-42" d="M1167.46,575.45s-5.75,20.29,3.38,27.06,9.81,2.7,9.81,2.7-9.13.68-9.13-9.47,5.41-16.23,8.46-15.9S1171.86,573.08,1167.46,575.45Z"/><path class="cls-43" d="M1179.11,605.71s-8.3,7.2-14.85.44-10.91-22.26-2.18-27.5c0,0,3.74-.58,3.6,6.46S1165,604.47,1179.11,605.71Z"/><path class="cls-43" d="M1169.18,573.9s-3.74-5.76,4-6.57,20.91-1.21,22.33,7.78-1,15.46-6.17,13.14-9.4-8.41-9.4-8.41S1177.26,575,1169.18,573.9Z"/><path class="cls-5" d="M1214,541.88s-42.75,22.58-45.35,27.17,2.2-8.39-1-8.39-8.59,6.19-9.59,2.8.89-8.47,5.28-10.87,33-19.86,41.61-20.06-18.92,12.35-6.54,10.75S1214,541.88,1214,541.88Z"/><path class="cls-44" d="M1329.24,534.82s-.25,21.23-5.75,15.23S1308,521.58,1286,533.32s-48.19,21.48-57.68,41.21-.75,39.45,1.24,39.7-11.73.25-16.73-5.49l-5-5.74s7.74,15.73,18.73,17,47.45-10.74,63.93-24,42.7-37.21,45.45-52.44S1329.24,534.82,1329.24,534.82Z"/><path class="cls-26" d="M1265.14,554.71s-27.1,8.75-20.06,29.24,9.6,20.7,16.65,20.28,31.8-25.83,31.8-25.83,5.76-20.92-10.25-23.26S1265.14,554.71,1265.14,554.71Z"/><path class="cls-45" d="M1259.59,562.82s13,3.2,13.45,7,2.56,11.32,5.12,8.33,14.3-10.25,12.81-13.66a23.19,23.19,0,0,1-1.71-7s7.26,5.77,4.27,20.92c0,0-27.53,27.32-31.8,25.83s-9-10.67-9-10.67l9.18-16.87Z"/><path class="cls-46" d="M1257,565.38s-11.74,17.08-4.91,25.83,18.36,9,18.78,3,6-16.44-.64-22.41S1257,565.38,1257,565.38Z"/><path class="cls-47" d="M821.07,526.25s3.57,10.72,7.91,8.68,11.23-12,9.7-12S827.7,522.42,821.07,526.25Z"/><path class="cls-47" d="M807.31,509.64s9.48,14.27,11,12.89,11.93-11,9.16-15.66S810.93,505.49,807.31,509.64Z"/><path class="cls-48" d="M842.89,493.34s-34.52,45.7-49.75,50.49c0,0,14.17.11,17.89-3.08s10.76-18.86,16-22.37S843.74,498.14,842.89,493.34Z"/><path class="cls-49" d="M845.6,478.9s-14.61-1.5-15.73,4.68-3.56,10.3-3.56,7.49-.37-7.49-4.87-2.06-33.34,29.78-26,29,12.17-6.93,14.61-4.12-2.63,9.74-5.62,13.48-22.85,22.11-25.85,21.17-9.36-.56,0-15.73,27.53-38,32.4-41,13.11-15.17,22.85-18S848.32,464.45,845.6,478.9Z"/><path class="cls-33" d="M1207.87,604.35s13.81-45.9,55.47-66.93,73.39-2,73.39-2,12.3-13.88-5.55-20.23-52-.4-71.42,18.25S1214.69,561,1207.87,604.35Z"/><path class="cls-36" d="M1211.43,534.54s19.51,4.25,12.73,15.56S1203,586.57,1195,592s-9.61,12.15-9.61,12.15l14.7-9.89s32.52-41.29,32.52-45.81,6.78-9-7.07-15.27S1211.43,534.54,1211.43,534.54Z"/><path class="cls-5" d="M1296.66,763.12s-47.31,42-67.68,42-187.91-3.28-187.91-3.28-7.57-10.51-14.72-9.67-152.41-16.53-152.41-16.53-1.1,5.12,2.92,5.49S1026,796.9,1028.58,798s8.41,7.68,12.43,12.07,46.57,2.33,120.62,5c70.29,2.55,97.32,3.22,137.88-33.7s23.6-23,23.6-23Z"/><path class="cls-50" d="M1296.66,763.12s-43.45,43-73.33,42.46-182.26-3.69-182.26-3.69a40.28,40.28,0,0,0-25.73-9.27c-15.78,0-141.4-16.93-141.4-16.93s-68.28-31.55-69.41-45.08-1.13-20.85-1.13-20.85,37.32,41.33,79.26,45.18,234.2,16.63,234.2,16.63Z"/><path class="cls-51" d="M1479.19,640.91s25.93,5.7,20.1,26.35-20.12,21.18-20.12,21.18S1492.45,661.15,1479.19,640.91Z"/><path class="cls-5" d="M1830.14,458.88s-33.92,25.64-25.92,84.6c7,51.32,16.92,63.72,27.72,47.52S1857.86,479.76,1830.14,458.88Z"/><path class="cls-6" d="M1827.66,476.11c-8.09-.48-15.33,16.76-18.34,39.54a174.31,174.31,0,0,0-.44,41.75c4.35,38.3,18.57,43.81,23.79,12C1837.19,541.83,1842.83,477,1827.66,476.11Z"/><path class="cls-7" d="M1810.87,515.74s14.83,10.09,6.77,6.55c-2.21-1-8,3.38-8,3.38s-2,5.94-.42,7.94l7.75.12s-8.12,6.88-8.12,10.5-.38,5.75.75,5.62,5.37-3.12,5.37-3.12-5.12,10-5,11.74.25,9.87,1.38,9.75,6.5-12.87,6.5-12.87-2.88,25.11-2.25,27,5.49,10.24,6.49,6.87S1821,555.1,1821,555.1l3.75,32.36s4.37-1.87,4.37-8.12-5-25.74-5-25.74,6.88,19.62,7.25,16.49,4.75-21.86,2.75-22.24a18.83,18.83,0,0,0-4-.25s5.12-2.5,5.5-12.49-5.62-4-5.62-4,6.49-6.87,6.49-10.5a8.62,8.62,0,0,0-2.75-6s-4.49,6-3.87,3.12,6.5-12.74,6.12-15.12-2.12-11.12-3.25-8.87-3-16.74-5.12-12-7.62,1.37-7.62,4.74.75,19.87-.75,16.62-2.87-11.12-3.87-8-3.13,7.74-2.25,9.49,4.25,6.12,2.87,6.12S1810.65,511.12,1810.87,515.74Z"/><path class="cls-8" d="M1822,527.37s-1.64,14,.21,13.77,3.28-4.31,2.87-10.48S1822,527.37,1822,527.37Z"/><path class="cls-19" d="M1213.69,371.9s41.09-3.34,44.93-1.23,113,19.2,113,19.2,45.06-16.89,63.9-10.12,89.64,15.45,96.42,15.45,30.13-3.77,30.13-3.77-19.15,8-27.83,7.86-122.18,5.55-132.73.27c0,0-6.29-7.15-10-7.27s-34.61-4-34.61-4-15.28-.13-40.09-3.17-75.8-9.45-75.8-9.45Z"/></svg>