<?xml version="1.0" encoding="UTF-8"?>
<svg width="232px" height="374px" viewBox="0 0 232 374" version="1.1" xmlns="http://www.w3.org/2000/svg" xmlns:xlink="http://www.w3.org/1999/xlink">
    
    <g id="Logo-final" stroke="none" stroke-width="1" fill="none" fill-rule="evenodd">
        <g id="Group-3" transform="translate(116.000000, 227.000000) rotate(90.000000) translate(-116.000000, -227.000000) translate(-25.000000, 117.000000)">
            <g id="Group-2" transform="translate(40.000000, 40.000000)" fill="#323232">
                <rect id="Rectangle" x="1.70530257e-13" y="0" width="20" height="140"></rect>
                <rect id="Rectangle" x="19" y="0" width="71" height="20"></rect>
                <rect id="Rectangle-Copy-3" x="19" y="80" width="71" height="20"></rect>
                <rect id="Rectangle-Copy" transform="translate(80.000000, 39.500000) rotate(90.000000) translate(-80.000000, -39.500000) " x="59.5" y="29.5" width="41" height="20"></rect>
                <rect id="Rectangle-Copy-4" transform="translate(80.000000, 119.500000) rotate(90.000000) translate(-80.000000, -119.500000) " x="59.5" y="109.5" width="41" height="20"></rect>
                <rect id="Rectangle-Copy-2" x="40" y="40" width="31" height="20"></rect>
            </g>
            <g id="Group" transform="translate(151.000000, 40.000000)" fill="#323232">
                <rect id="Rectangle-Copy-7" x="19.5" y="60" width="71" height="20"></rect>
                <rect id="Rectangle-Copy-5" x="0.5" y="0" width="90" height="20"></rect>
                <rect id="Rectangle-Copy-9" x="0.5" y="120" width="90" height="20"></rect>
                <rect id="Rectangle-Copy-6" transform="translate(10.500000, 49.500000) rotate(90.000000) translate(-10.500000, -49.500000) " x="-20" y="39.5" width="61" height="20"></rect>
                <rect id="Rectangle-Copy-8" transform="translate(80.500000, 95.000000) rotate(90.000000) translate(-80.500000, -95.000000) " x="54.5" y="85" width="52" height="20"></rect>
                <rect id="Rectangle-Copy-10" transform="translate(80.500000, 29.500000) rotate(90.000000) translate(-80.500000, -29.500000) " x="70" y="19.5" width="21" height="20"></rect>
                <rect id="Rectangle-Copy-11" transform="translate(10.500000, 110.500000) rotate(90.000000) translate(-10.500000, -110.500000) " x="0" y="100.5" width="21" height="20"></rect>
            </g>
            <rect id="Rectangle" stroke="#323232" stroke-width="20" x="10" y="10" width="262" height="200"></rect>
        </g>
        <g id="Group-4" transform="translate(45.500000, 26.000000)" fill="#323232">
            <rect id="Rectangle-Copy-12" transform="translate(130.500000, 15.500000) rotate(90.000000) translate(-130.500000, -15.500000) " x="115" y="5.5" width="31" height="20"></rect>
            <rect id="Rectangle-Copy-13" transform="translate(10.500000, 15.500000) rotate(90.000000) translate(-10.500000, -15.500000) " x="-5" y="5.5" width="31" height="20"></rect>
            <rect id="Rectangle" transform="translate(70.500000, 40.000000) rotate(90.000000) translate(-70.500000, -40.000000) " x="60.5" y="-30" width="20" height="140"></rect>
        </g>
        <circle id="Oval" fill="#8367D8" cx="116" cy="26" r="20"></circle>
    </g>
</svg>