<?xml version="1.0" encoding="UTF-8"?>
<svg width="232px" height="374px" viewBox="0 0 232 374" version="1.1" xmlns="http://www.w3.org/2000/svg" xmlns:xlink="http://www.w3.org/1999/xlink">
    <!-- Generator: Sketch 55.2 (78181) - https://sketchapp.com -->
    <title>Logo stroke</title>
    <desc>Created with Sketch.</desc>
    <g id="Logo-stroke" stroke="none" stroke-width="1" fill="none" fill-rule="evenodd">
        <g id="Group" transform="translate(5.859091, 6.000000)">
            <g id="Outer-Border" transform="translate(109.500000, 220.640909) rotate(90.000000) translate(-109.500000, -220.640909) translate(-31.000000, 111.140909)" fill-rule="nonzero" stroke="#323232" stroke-width="10">
                <g id="Group-2" transform="translate(38.777273, 39.772727)">
                    <path d="M15.9954545,134.409091 L15.9954545,94.6363636 L5.99545455,94.6363636 L5.99545455,134.409091 L15.9954545,134.409091 Z" id="Path-3"></path>
                    <path d="M45.8590909,44.8181818 L45.8590909,54.8181818 L85.6772727,54.8181818 L85.6772727,5 L5.99545455,5 L5.99545455,94.6363636 L75.6772727,94.6363636 L75.6772727,134.409091 L85.6772727,134.409091 L85.6772727,84.6363636 L15.9954545,84.6363636 L15.9954545,15 L75.6772727,15 L75.6772727,44.8181818 L45.8590909,44.8181818 Z" id="Path"></path>
                </g>
                <g id="S-group" transform="translate(160.268182, 49.772727)">
                    <path d="M69.9032194,88.6134484 L69.9032194,98.4460206 L98.9395812,98.4460206 L98.9395812,20.0085244 L29.8797365,20.0085244 L29.8797365,88.6134484 L-19.5149638,88.6134484 L-19.5149638,29.8410966 L-0.31117426,29.8410966 L-0.31117426,20.0085244 L-29.347536,20.0085244 L-29.347536,98.4460206 L39.7123087,98.4460206 L39.7123087,29.8410966 L89.107009,29.8410966 L89.107009,88.6134484 L69.9032194,88.6134484 Z" id="Path-4" transform="translate(34.796023, 59.227273) rotate(90.000000) translate(-34.796023, -59.227273) "></path>
                </g>
                <path d="M5,5 L5,214 L275.718182,214 L275.718182,5 L5,5 Z M15,15 L265.718182,15 L265.718182,204 L15,204 L15,15 Z" id="Rectangle"></path>
            </g>
            <g id="crescent" transform="translate(39.640909, 20.000000)" fill-rule="nonzero" stroke="#323232" stroke-width="10">
                <path d="M15.4875,5 L5.4875,5 L5.4875,44 L132.4875,44 L132.4875,5 L122.4875,5 L122.4875,34 L15.4875,34 L15.4875,5 Z" id="Path-2"></path>
            </g>
            <circle id="Oval" fill="#8367D8" cx="110.140909" cy="20" r="20"></circle>
        </g>
    </g>
</svg>