<?xml version="1.0" encoding="utf-8"?>
<!-- Generator: Adobe Illustrator 19.2.0, SVG Export Plug-In . SVG Version: 6.00 Build 0)  -->
<svg version="1.1" id="Layer_1" xmlns="http://www.w3.org/2000/svg" xmlns:xlink="http://www.w3.org/1999/xlink" x="0px" y="0px"
	 width="320px" height="320px" viewBox="0 0 320 320" style="enable-background:new 0 0 320 320;" xml:space="preserve">
<style type="text/css">
	.st0{fill:#4B4B4B;}
</style>
<g id="eb7d_1_">
	<path id="eb7d" class="st0" d="M123.4,199.9l-37.2,29c-6.9,5.3-7.6,14.7-1.4,20.9L110,275c6.2,6.2,15.6,5.6,20.9-1.4l29-37.2
		L123.4,199.9L123.4,199.9z M317.4,90.1c1.1,4.6,1.6,9.4,1.6,14.3c0,35.1-28.5,63.6-63.6,63.6c-12.7,0-24.5-3.7-34.4-10.1
		l-27.6,35.5l62,62l-23.8,23.8L88.4,136.2l-47.7,47.7L1,144.1l51.2-51.2l-3.5-3.5V72.6h16.9l3.5,3.5l35.3-35.3h79.5l-71.5,71.6
		l54.1,54.1l35.5-27.6c-6.4-9.9-10.1-21.7-10.1-34.4c0-35.1,28.5-63.6,63.6-63.6c4.9,0,9.7,0.6,14.3,1.6l-38.1,38.1l47.7,47.7
		L317.4,90.1L317.4,90.1z"/>
</g>
</svg>
