<?xml version="1.0" encoding="utf-8"?>
<!-- Generator: Adobe Illustrator 19.2.0, SVG Export Plug-In . SVG Version: 6.00 Build 0)  -->
<svg class="intro-icon icon-waves" version="1.1" xmlns="http://www.w3.org/2000/svg" xmlns:xlink="http://www.w3.org/1999/xlink" width="80" height="54" viewBox="0 0 79.4 53.9" xml:space="preserve">
	<style>.wave-1, .wave-3{stroke-dasharray: 56;stroke-dashoffset: 0;} .wave-2{stroke-dasharray: 56;stroke-dashoffset: 112;}</style>
    <g fill="none" stroke= "#323232" stroke-linejoin="bevel" stroke-width="3" stroke-miterlimit="10">
		<path class="wave-1"
            d="M19.2,18.1c8.8,0,10.2-7.8,10.2-7.8c0,0,1.4,7.8,10.2,7.8s10.2-7.8,10.2-7.8s1.4,7.8,10.2,7.8">
        </path>
        <path class="wave-2"
            d="M19.2,31.1c8.8,0,10.2-7.8,10.2-7.8c0,0,1.4,7.8,10.2,7.8s10.2-7.8,10.2-7.8s1.4,7.8,10.2,7.8">
        </path>
        <path class="wave-3"
            d="M19.2,44.1c8.8,0,10.2-7.8,10.2-7.8c0,0,1.4,7.8,10.2,7.8s10.2-7.8,10.2-7.8s1.4,7.8,10.2,7.8">
        </path>
	</g>
</svg>