<svg xmlns="http://www.w3.org/2000/svg" version="1.1" xmlns:xlink="http://www.w3.org/1999/xlink" xmlns:svgjs="http://svgjs.com/svgjs" viewBox="0 0 140 140" width="140" height="140"><g transform="matrix(0.7,0,0,0.7,0,0)"><path d="M19.000 100.000 A81.000 81.000 0 1 0 181.000 100.000 A81.000 81.000 0 1 0 19.000 100.000 Z" fill="#f0f2ff"></path><path d="M49.237,150.706a1.653,1.653,0,0,0,.173,2.332l1.879,1.62a1.653,1.653,0,0,0,2.332-.174l13.746-15.949a.828.828,0,0,0-.086-1.166l-.11-.094.815-.957a3.292,3.292,0,0,0,3.118-1.107c.859-1.018.822-3.7.739-5.08a.819.819,0,0,0-.912-.77c-1.373.151-4.024.566-4.883,1.584a3.293,3.293,0,0,0-.579,3.229l-.8.942-.518-.446a.827.827,0,0,0-1.166.087Z" fill="#d0cdff"></path><path d="M64.312,116.841,51.45,119.752a1.662,1.662,0,0,1-2-1.148l-5.8-22.679a1.553,1.553,0,0,1,1.22-1.876l12.863-2.911a1.662,1.662,0,0,1,2,1.148l5.805,22.679A1.553,1.553,0,0,1,64.312,116.841Z" fill="#d0cdff"></path><path d="M138.654,112.745l-2.406,6.7a6.225,6.225,0,0,0,11.718,4.209l2.405-6.7a6.225,6.225,0,1,0-11.717-4.21Z" fill="#d0cdff"></path><path d="M119.018,114.541H80.982a4.961,4.961,0,0,1-4.961-4.962V98h47.958v11.576A4.961,4.961,0,0,1,119.018,114.541Z" fill="#d0cdff"></path><path d="M143.824,74.851c0-1.415-11.769-2.621-28.316-3.094l-.025-.214H84.517l-.025.214c-16.547.473-28.316,1.679-28.316,3.094,0,1.393,11.427,2.585,27.591,3.072l-.26,2.207a6.963,6.963,0,0,0,6.916,7.776h19.154a6.963,6.963,0,0,0,6.916-7.776l-.26-2.207C132.4,77.436,143.824,76.244,143.824,74.851Z" fill="#d0cdff"></path><path d="M119.845,110.406H80.155a3.307,3.307,0,0,1-3.307-3.307V92.215A1.654,1.654,0,0,1,78.5,90.561h43a1.655,1.655,0,0,1,1.654,1.654V107.1A3.308,3.308,0,0,1,119.845,110.406Z" fill="#ffffff"></path><path d="M119.845,110.406H80.155a3.307,3.307,0,0,1-3.307-3.307V92.215A1.654,1.654,0,0,1,78.5,90.561h43a1.655,1.655,0,0,1,1.654,1.654V107.1A3.308,3.308,0,0,1,119.845,110.406Z" fill="none" stroke="#8367d8" stroke-linecap="round" stroke-linejoin="round"></path><path d="M81.809 105.445L85.116 105.445" fill="none" stroke="#8367d8" stroke-linecap="round" stroke-linejoin="round"></path><path d="M81.809 100.484L85.116 100.484" fill="none" stroke="#8367d8" stroke-linecap="round" stroke-linejoin="round"></path><path d="M81.809 95.522L85.116 95.522" fill="none" stroke="#8367d8" stroke-linecap="round" stroke-linejoin="round"></path><path d="M88.424 100.484L91.731 100.484" fill="none" stroke="#8367d8" stroke-linecap="round" stroke-linejoin="round"></path><path d="M88.424 95.522L91.731 95.522" fill="none" stroke="#8367d8" stroke-linecap="round" stroke-linejoin="round"></path><path d="M95.039 100.484L98.346 100.484" fill="none" stroke="#8367d8" stroke-linecap="round" stroke-linejoin="round"></path><path d="M95.039 95.522L98.346 95.522" fill="none" stroke="#8367d8" stroke-linecap="round" stroke-linejoin="round"></path><path d="M101.654 100.484L104.961 100.484" fill="none" stroke="#8367d8" stroke-linecap="round" stroke-linejoin="round"></path><path d="M101.654 95.522L104.961 95.522" fill="none" stroke="#8367d8" stroke-linecap="round" stroke-linejoin="round"></path><path d="M108.269 100.484L111.576 100.484" fill="none" stroke="#8367d8" stroke-linecap="round" stroke-linejoin="round"></path><path d="M108.269 95.522L111.576 95.522" fill="none" stroke="#8367d8" stroke-linecap="round" stroke-linejoin="round"></path><path d="M114.884 105.445L118.191 105.445" fill="none" stroke="#8367d8" stroke-linecap="round" stroke-linejoin="round"></path><path d="M114.884 100.484L118.191 100.484" fill="none" stroke="#8367d8" stroke-linecap="round" stroke-linejoin="round"></path><path d="M114.884 95.522L118.191 95.522" fill="none" stroke="#8367d8" stroke-linecap="round" stroke-linejoin="round"></path><path d="M88.424 105.445L111.576 105.445" fill="none" stroke="#8367d8" stroke-linecap="round" stroke-linejoin="round"></path><path d="M161.127,42.6H38.873a5.864,5.864,0,0,0-5.325,8.317h132.9A5.864,5.864,0,0,0,161.127,42.6Z" fill="#ffffff"></path><path d="M161.127,42.6H38.873a5.864,5.864,0,0,0-5.325,8.317h132.9A5.864,5.864,0,0,0,161.127,42.6Z" fill="none" stroke="#8367d8" stroke-linecap="round" stroke-linejoin="round"></path><path d="M107.348,55.832h-14.7a6.615,6.615,0,0,0-6.569,5.843L84.332,76.559A6.614,6.614,0,0,0,90.9,83.946h18.2a6.614,6.614,0,0,0,6.569-7.387l-1.751-14.884A6.615,6.615,0,0,0,107.348,55.832Z" fill="#ffffff"></path><path d="M107.348,55.832h-14.7a6.615,6.615,0,0,0-6.569,5.843L84.332,76.559A6.614,6.614,0,0,0,90.9,83.946h18.2a6.614,6.614,0,0,0,6.569-7.387l-1.751-14.884A6.615,6.615,0,0,0,107.348,55.832Z" fill="none" stroke="#8367d8" stroke-linecap="round" stroke-linejoin="round"></path><path d="M163.616,45.91H36.384a3.307,3.307,0,0,0-2.836,5.009L43.981,68.308a4.962,4.962,0,0,0,4.254,2.408h103.53a4.962,4.962,0,0,0,4.254-2.408l10.433-17.389A3.307,3.307,0,0,0,163.616,45.91Z" fill="#d0cdff"></path><path d="M163.616,45.91H36.384a3.307,3.307,0,0,0-2.836,5.009L43.981,68.308a4.962,4.962,0,0,0,4.254,2.408h103.53a4.962,4.962,0,0,0,4.254-2.408l10.433-17.389A3.307,3.307,0,0,0,163.616,45.91Z" fill="none" stroke="#8367d8" stroke-linecap="round" stroke-linejoin="round"></path><path d="M42.45,65.755l1.531,2.553a4.962,4.962,0,0,0,4.254,2.408h103.53a4.962,4.962,0,0,0,4.254-2.408l1.532-2.553Z" fill="#ffffff"></path><path d="M42.45,65.755l1.531,2.553a4.962,4.962,0,0,0,4.254,2.408h103.53a4.962,4.962,0,0,0,4.254-2.408l1.532-2.553Z" fill="none" stroke="#8367d8" stroke-linecap="round" stroke-linejoin="round"></path><path d="M131.429,73.445a1.653,1.653,0,0,0,1.548,2.234h10.754a1.652,1.652,0,0,0,1.4-.777L147.2,71.6a1.654,1.654,0,0,0-1.4-2.531H134.217a1.654,1.654,0,0,0-1.548,1.074Z" fill="#d0cdff" stroke="#8367d8" stroke-linecap="round" stroke-linejoin="round"></path><path d="M138.131,111.322l-2.237,6.225a5.788,5.788,0,1,0,10.895,3.914l2.236-6.225a5.788,5.788,0,1,0-10.894-3.914Z" fill="#ffffff"></path><path d="M138.131,111.322l-2.237,6.225a5.788,5.788,0,1,0,10.895,3.914l2.236-6.225a5.788,5.788,0,1,0-10.894-3.914Z" fill="none" stroke="#8367d8" stroke-linecap="round" stroke-linejoin="round"></path><path d="M143.858,111.673a.828.828,0,1,0,.279.049.83.83,0,0,0-.279-.049Z" fill="#8367d8"></path><path d="M158.926,91.459a1.654,1.654,0,0,0-.735-2.22L146.37,83.3a1.654,1.654,0,0,0-2.22.735l-.373.742h-8.225a1.655,1.655,0,0,0-1.654,1.654v13.23a1.655,1.655,0,0,0,1.654,1.654h9.836l5.377,2.7a1.654,1.654,0,0,0,2.22-.735Z" fill="#d0cdff"></path><path d="M134.725 83.948 L149.609 83.948 L149.609 98.832 L134.725 98.832 Z" fill="#d0cdff" stroke="#8367d8" stroke-linecap="round" stroke-linejoin="round"></path><path d="M138.745,93.406a1.655,1.655,0,0,0,.78,2.2l10.446,4.989a1.654,1.654,0,0,0,2.2-.78l4.989-10.446a1.655,1.655,0,0,0-.78-2.2L145.939,82.18a1.653,1.653,0,0,0-2.2.78Z" fill="#ffffff" stroke="#8367d8" stroke-linecap="round" stroke-linejoin="round"></path><path d="M48.586 149.582 L63.473 131.851 L67.272 135.041 L52.385 152.772 Z" fill="#ffffff" transform="matrix(0.643, -0.766, 0.766, 0.643, -88.312, 95.174)"></path><path d="M53.903 143.25L57.702 146.44" fill="none" stroke="#8367d8" stroke-linecap="round" stroke-linejoin="round"></path><path d="M49.649,148.316a3.306,3.306,0,0,1-.406-4.659L53.5,138.59" fill="none" stroke="#8367d8" stroke-linecap="round" stroke-linejoin="round"></path><path d="M68.867,133.141a2.481,2.481,0,1,1-3.8-3.19c.881-1.05,4.558-1.572,4.558-1.572S69.748,132.091,68.867,133.141Z" fill="#d0cdff"></path><path d="M68.867,133.141a2.481,2.481,0,1,1-3.8-3.19c.881-1.05,4.558-1.572,4.558-1.572S69.748,132.091,68.867,133.141Z" fill="none" stroke="#8367d8" stroke-linecap="round" stroke-linejoin="round"></path><path d="M48.586 149.582 L63.473 131.851 L67.272 135.041 L52.385 152.772 Z" fill="none" stroke="#8367d8" stroke-linecap="round" stroke-linejoin="round" transform="matrix(0.643, -0.766, 0.766, 0.643, -88.312, 95.174)"></path><path d="M134.346,134.265l-5.237-1.465L129,127.7a1.653,1.653,0,0,0-1.69-1.616l-20.6.456L88.159,121.35a1.654,1.654,0,0,0-2.038,1.147l-1.265,4.523-5.5.122a1.653,1.653,0,0,0-1.616,1.69l.485,21.892-1.459,5.219a1.653,1.653,0,0,0,1.147,2.038l.476.133.12,5.438a1.655,1.655,0,0,0,1.69,1.617l21.7-.482,22.2,6.209a1.654,1.654,0,0,0,2.038-1.148l1.575-5.633.433-.01a1.653,1.653,0,0,0,1.617-1.689l-.116-5.218,5.843-20.9A1.653,1.653,0,0,0,134.346,134.265Z" fill="#d0cdff"></path><path d="M79.399 125.392 L129.012 125.392 L129.012 161.775 L79.399 161.775 Z" fill="#ffffff" stroke="#8367d8" stroke-linecap="round" stroke-linejoin="round" transform="translate(-2.043 1.505) rotate(-0.819)"></path><path d="M87.697 118.897 L124.080 118.897 L124.080 168.509 L87.697 168.509 Z" fill="#ffffff" stroke="#8367d8" stroke-linecap="round" stroke-linejoin="round" transform="translate(-61.02 206.984) rotate(-74.378)"></path><path d="M102.676,140.38a9.1,9.1,0,1,1-1.582-12.765A9.094,9.094,0,0,1,102.676,140.38Z" fill="#d0cdff"></path><path d="M89.911,141.963a9.1,9.1,0,1,1,11.183-14.348Z" fill="#d0cdff"></path><path d="M95.5,134.789l5.592-7.174a9.068,9.068,0,0,0-6.71-1.853Z" fill="#d0cdff"></path><path d="M102.676,140.38a9.1,9.1,0,0,0-1.582-12.765L95.5,134.789Z" fill="#d0cdff"></path><path d="M102.676,140.38a9.1,9.1,0,1,1-1.582-12.765A9.094,9.094,0,0,1,102.676,140.38Z" fill="none" stroke="#8367d8" stroke-linecap="round" stroke-linejoin="round"></path><path d="M84.55 146.322L92.513 148.549" fill="none" stroke="#8367d8" stroke-linecap="round" stroke-linejoin="round"></path><path d="M85.252 149.953L94.808 152.625" fill="none" stroke="#8367d8" stroke-linecap="round" stroke-linejoin="round"></path><path d="M122.585 163.827L97.103 156.701" fill="none" stroke="#8367d8" stroke-linecap="round" stroke-linejoin="round"></path><path d="M102.994,154.056a.827.827,0,0,0-.574-1.019l-1.592-.446a.827.827,0,0,0-1.019.574L98.7,157.147l3.186.89Z" fill="#d0cdff" stroke="#8367d8" stroke-linecap="round" stroke-linejoin="round"></path><path d="M110.7,151.059a.827.827,0,0,0-.574-1.019l-1.593-.446a.827.827,0,0,0-1.019.574l-2.449,8.76,3.185.891Z" fill="#d0cdff" stroke="#8367d8" stroke-linecap="round" stroke-linejoin="round"></path><path d="M117.071,152.84a.827.827,0,0,0-.573-1.019l-1.593-.445a.828.828,0,0,0-1.019.574l-2.449,8.759,3.185.891Z" fill="#d0cdff" stroke="#8367d8" stroke-linecap="round" stroke-linejoin="round"></path><path d="M125.223,148.251a.827.827,0,0,0-.573-1.019l-1.593-.445a.826.826,0,0,0-1.019.573l-4.231,15.13,3.185.891Z" fill="#d0cdff" stroke="#8367d8" stroke-linecap="round" stroke-linejoin="round"></path><path d="M111.044 131.407L117.415 133.189" fill="none" stroke="#8367d8" stroke-linecap="round" stroke-linejoin="round"></path><path d="M114.931 135.929L126.08 139.046" fill="none" stroke="#8367d8" stroke-linecap="round" stroke-linejoin="round"></path><path d="M110.855 138.223L118.819 140.45" fill="none" stroke="#8367d8" stroke-linecap="round" stroke-linejoin="round"></path><path d="M101.094 127.615L89.911 141.963" fill="none" stroke="#8367d8" stroke-linecap="round" stroke-linejoin="round"></path><path d="M95.502 134.789L102.676 140.38" fill="none" stroke="#8367d8" stroke-linecap="round" stroke-linejoin="round"></path><path d="M94.384 125.762L95.502 134.789" fill="none" stroke="#8367d8" stroke-linecap="round" stroke-linejoin="round"></path><path d="M48.895 91.547 L62.786 91.547 L62.786 115.361 L48.895 115.361 Z" fill="#ffffff" stroke="#8367d8" stroke-linecap="round" stroke-linejoin="round" transform="translate(-22.661 15.941) rotate(-13.534)"></path><path d="M48.895 95.515H62.787000000000006V111.391H48.895z" fill="#d0cdff" transform="translate(-22.661 15.942) rotate(-13.535)"></path><path d="M48.895 95.515H62.787000000000006V111.391H48.895z" fill="none" stroke="#8367d8" stroke-linecap="round" stroke-linejoin="round" transform="translate(-22.661 15.942) rotate(-13.535)"></path></g></svg>